<svg 
 xmlns="http://www.w3.org/2000/svg"
 xmlns:xlink="http://www.w3.org/1999/xlink"
 width="0.278in" height="0.278in">
<path fill-rule="evenodd"  fill="rgb(249, 153, 60)"
 d="M16.189,20.001 C16.547,15.742 15.112,11.367 11.864,8.117 C8.617,4.868 4.246,3.432 -0.009,3.790 L-0.009,0.113 C5.263,-0.497 10.742,1.201 14.775,5.237 C18.801,9.265 20.500,14.734 19.900,20.001 L16.189,20.001 ZM0.945,19.106 C-0.279,17.881 -0.274,15.891 0.955,14.660 C2.185,13.430 4.174,13.425 5.399,14.650 C6.623,15.875 6.618,17.865 5.388,19.096 C4.828,19.656 4.110,19.949 3.379,20.001 L2.940,20.001 C2.213,19.950 1.500,19.661 0.945,19.106 ZM7.379,13.870 C5.360,11.850 2.631,11.020 -0.009,11.293 L-0.009,7.580 C3.646,7.042 7.492,8.161 10.297,10.968 C12.776,13.449 13.936,16.743 13.803,20.001 L10.013,20.001 C9.936,17.772 9.075,15.568 7.379,13.870 Z"/>
</svg>