<svg 
 xmlns="http://www.w3.org/2000/svg"
 xmlns:xlink="http://www.w3.org/1999/xlink"
 width="0.417in" height="0.417in">
<path fill-rule="evenodd"  fill="rgb(239, 100, 153)"
 d="M15.202,23.207 C10.955,23.207 7.500,19.553 7.500,15.197 C7.500,10.840 10.955,7.363 15.202,7.363 C19.450,7.363 22.691,10.840 22.691,15.197 C22.691,19.553 19.450,23.207 15.202,23.207 ZM21.548,16.278 C21.323,16.205 19.662,15.651 17.600,15.989 C18.461,18.415 18.811,20.390 18.878,20.801 C20.354,19.777 21.255,18.156 21.548,16.278 ZM17.772,21.418 C17.674,20.826 17.293,18.763 16.369,16.301 C16.354,16.306 16.340,16.311 16.325,16.316 C12.615,17.642 11.282,20.282 11.164,20.530 C12.280,21.422 13.681,22.153 15.202,22.153 C16.114,22.153 16.982,21.764 17.772,21.418 ZM10.315,19.719 C10.464,19.457 12.269,16.391 15.662,15.266 C15.748,15.237 15.835,15.211 15.922,15.186 C15.756,14.802 15.577,14.418 15.388,14.040 C12.103,15.049 8.914,15.007 8.627,15.001 C8.625,15.069 8.623,15.138 8.623,15.207 C8.623,16.940 9.264,18.522 10.315,19.719 ZM8.762,13.825 C9.056,13.829 11.767,13.841 14.845,13.003 C13.754,11.015 12.514,9.278 12.341,9.034 C10.500,9.925 9.189,11.731 8.762,13.825 ZM13.661,8.647 C13.842,8.896 15.037,10.565 16.115,12.597 C18.455,11.697 19.510,10.266 19.628,10.093 C18.466,9.036 16.874,8.393 15.202,8.393 C14.672,8.393 14.155,8.524 13.661,8.647 ZM20.359,10.874 C20.221,11.066 19.054,12.582 16.621,13.600 C16.774,13.922 16.921,14.249 17.058,14.578 C17.106,14.694 17.153,14.810 17.200,14.926 C19.389,14.644 21.478,15.096 21.695,15.143 C21.680,13.551 21.276,12.022 20.359,10.874 ZM15.094,0.000 C23.326,0.000 30.000,6.716 30.000,15.000 C30.000,23.284 23.326,30.000 15.094,30.000 C6.861,30.000 0.188,23.284 0.188,15.000 C0.188,6.716 6.861,0.000 15.094,0.000 Z"/>
</svg>