<svg 
 xmlns="http://www.w3.org/2000/svg"
 xmlns:xlink="http://www.w3.org/1999/xlink"
 width="0.417in" height="0.417in">
<path fill-rule="evenodd"  fill="rgb(56, 84, 143)"
 d="M14.772,30.000 C6.614,30.000 0.000,23.284 0.000,15.000 C0.000,6.716 6.614,0.000 14.772,0.000 C22.931,0.000 29.545,6.716 29.545,15.000 C29.545,23.284 22.931,30.000 14.772,30.000 ZM16.492,7.062 C15.724,7.062 15.008,7.240 14.347,7.595 C13.686,7.950 13.186,8.493 12.846,9.224 C12.507,9.955 12.337,10.753 12.337,11.618 L12.337,11.998 L11.008,11.998 L11.008,14.403 L12.337,14.403 L12.337,22.313 L15.557,22.313 L15.557,14.403 L17.593,14.403 L17.593,11.998 L15.537,11.998 L15.537,11.471 C15.537,10.901 15.666,10.453 15.926,10.126 C16.186,9.799 16.554,9.635 17.032,9.635 C17.413,9.635 17.759,9.685 18.071,9.783 L18.175,7.273 C17.607,7.132 17.046,7.062 16.492,7.062 Z"/>
</svg>