<svg 
 xmlns="http://www.w3.org/2000/svg"
 xmlns:xlink="http://www.w3.org/1999/xlink"
 width="0.417in" height="0.417in">
<path fill-rule="evenodd"  fill="rgb(38, 134, 185)"
 d="M15.165,30.000 C7.007,30.000 0.393,23.284 0.393,15.000 C0.393,6.716 7.007,0.000 15.165,0.000 C23.324,0.000 29.938,6.716 29.938,15.000 C29.938,23.284 23.324,30.000 15.165,30.000 ZM7.147,22.699 L10.627,22.699 L10.627,11.381 L7.147,11.381 L7.147,22.699 ZM8.887,6.451 C7.765,6.451 7.032,7.215 7.055,8.233 C7.032,9.205 7.765,9.992 8.864,9.992 C10.008,9.992 10.741,9.205 10.741,8.233 C10.718,7.215 10.008,6.451 8.887,6.451 ZM24.042,15.987 C24.042,12.654 22.325,11.126 20.035,11.126 C18.181,11.126 17.036,12.214 16.578,12.932 L16.510,12.932 L16.349,11.381 L13.327,11.381 C13.373,12.376 13.419,13.579 13.419,14.991 L13.419,22.699 L16.899,22.699 L16.899,16.172 C16.899,15.848 16.945,15.501 17.036,15.292 C17.265,14.644 17.838,13.973 18.799,13.973 C20.058,13.973 20.562,14.968 20.562,16.426 L20.562,22.699 L24.042,22.699 L24.042,15.987 Z"/>
</svg>