<svg 
 xmlns="http://www.w3.org/2000/svg"
 xmlns:xlink="http://www.w3.org/1999/xlink"
 width="0.417in" height="0.417in">
<path fill-rule="evenodd"  fill="rgb(50, 205, 251)"
 d="M15.103,30.000 C6.944,30.000 0.330,23.284 0.330,15.000 C0.330,6.716 6.944,0.000 15.103,0.000 C23.261,0.000 29.875,6.716 29.875,15.000 C29.875,23.284 23.261,30.000 15.103,30.000 ZM21.126,10.513 C21.126,10.513 22.404,9.510 22.495,8.689 C22.495,8.689 20.609,9.601 20.366,9.418 C20.366,9.418 19.028,7.838 16.594,8.689 C16.594,8.689 14.295,9.577 14.751,12.494 C14.751,12.494 9.969,12.166 7.852,8.975 C7.852,8.975 6.392,11.619 8.801,13.442 C8.801,13.442 8.272,13.570 7.414,13.041 C7.414,13.041 7.323,15.739 9.988,16.341 C9.988,16.341 9.623,16.578 8.582,16.432 C8.582,16.432 8.911,18.456 11.594,18.711 C11.594,18.711 9.696,20.462 6.794,20.097 C6.794,20.097 12.305,23.914 18.145,19.234 C18.145,19.234 21.279,16.833 21.279,11.758 C21.279,11.758 22.921,10.209 22.951,10.057 C22.982,9.905 21.643,10.543 21.126,10.513 Z"/>
</svg>